<svg width="58" height="58" viewBox="0 0 58 58" fill="none" xmlns="http://www.w3.org/2000/svg">
<path d="M29 3.22217C23.9817 3.22636 19.169 5.21622 15.613 8.75713C12.057 12.298 10.0467 17.1023 10.0211 22.1205C10.0211 29.6444 14.2422 35.9438 17.3356 40.5355L17.8995 41.3733C20.9771 45.8339 24.2788 50.1357 27.7917 54.2622L29.0161 55.6961L30.2406 54.2622C33.753 50.1353 37.0546 45.8335 40.1328 41.3733L40.6967 40.5194C43.7739 35.9277 47.995 29.6444 47.995 22.1205C47.9695 17.0995 45.9569 12.2928 42.3974 8.75146C38.838 5.21008 34.0211 3.2221 29 3.22217ZM29 30.6111C26.9097 30.6111 24.8663 29.9912 23.1282 28.8299C21.3902 27.6686 20.0356 26.0179 19.2356 24.0867C18.4357 22.1555 18.2264 20.0304 18.6342 17.9803C19.042 15.9301 20.0486 14.0469 21.5267 12.5688C23.0048 11.0908 24.888 10.0842 26.9381 9.67636C28.9883 9.26856 31.1133 9.47785 33.0445 10.2778C34.9758 11.0777 36.6264 12.4324 37.7877 14.1704C38.949 15.9085 39.5689 17.9518 39.5689 20.0422C39.5689 22.8452 38.4554 25.5335 36.4733 27.5155C34.4913 29.4976 31.8031 30.6111 29 30.6111Z" fill="#2E2E2E"/>
<path d="M29 26.0517C32.3189 26.0517 35.0094 23.3612 35.0094 20.0423C35.0094 16.7234 32.3189 14.0328 29 14.0328C25.6811 14.0328 22.9905 16.7234 22.9905 20.0423C22.9905 23.3612 25.6811 26.0517 29 26.0517Z" fill="#2E2E2E"/>
</svg>
